<svg width="60" height="60" viewBox="0 0 60 60" fill="none" xmlns="http://www.w3.org/2000/svg">
<g clip-path="url(#clip0_383_42)">
<path d="M26.575 35.25C27.5268 33.1585 28.8813 31.2749 30.5612 29.707C32.2411 28.139 34.2134 26.9174 36.3655 26.1118C38.5176 25.3062 40.8073 24.9325 43.1038 25.0119C45.4004 25.0914 47.6588 25.6226 49.75 26.575C51.8415 27.5268 53.7251 28.8813 55.293 30.5612C56.861 32.2411 58.0826 34.2134 58.8882 36.3655C59.6938 38.5176 60.0675 40.8073 59.9881 43.1038C59.9086 45.4004 59.3774 47.6588 58.425 49.75C57.0389 52.8101 54.7989 55.4051 51.974 57.2234C49.1491 59.0416 45.8594 60.0057 42.5 60C35.75 60 29.575 56.1 26.675 50H2.5V45C2.65 42.15 4.6 39.825 8.35 37.95C12.1 36.075 16.8 35.1 22.5 35C23.925 35 25.275 35.125 26.575 35.25ZM22.5 10C25.3 10.075 27.65 11.05 29.525 12.925C31.4 14.8 32.325 17.15 32.325 20C32.325 22.85 31.4 25.2 29.525 27.075C27.65 28.95 25.3 29.875 22.5 29.875C19.7 29.875 17.35 28.95 15.475 27.075C13.6 25.2 12.675 22.85 12.675 20C12.675 17.15 13.6 14.8 15.475 12.925C17.35 11.05 19.7 10.075 22.5 10ZM42.5 55C45.8152 55 48.9946 53.683 51.3388 51.3388C53.683 48.9946 55 45.8152 55 42.5C55 39.1848 53.683 36.0054 51.3388 33.6612C48.9946 31.317 45.8152 30 42.5 30C39.1848 30 36.0054 31.317 33.6612 33.6612C31.317 36.0054 30 39.1848 30 42.5C30 45.8152 31.317 48.9946 33.6612 51.3388C36.0054 53.683 39.1848 55 42.5 55ZM40 35H43.75V42.05L49.85 45.575L47.975 48.825L40 44.225V35Z" fill="#FF3115"/>
</g>
<defs>
<clipPath id="clip0_383_42">
<rect width="60" height="60" fill="white"/>
</clipPath>
</defs>
</svg>
