<svg width="60" height="60" viewBox="0 0 60 60" fill="none" xmlns="http://www.w3.org/2000/svg">
<path d="M52.5 27.775V17.5C52.5 16.1739 51.9732 14.9021 51.0355 13.9645C50.0979 13.0268 48.8261 12.5 47.5 12.5H37.5V7.5C37.5 6.17392 36.9732 4.90215 36.0355 3.96447C35.0979 3.02678 33.8261 2.5 32.5 2.5H22.5C21.1739 2.5 19.9021 3.02678 18.9645 3.96447C18.0268 4.90215 17.5 6.17392 17.5 7.5V12.5H7.5C6.17392 12.5 4.90215 13.0268 3.96447 13.9645C3.02678 14.9021 2.5 16.1739 2.5 17.5V45C2.5 46.3261 3.02678 47.5979 3.96447 48.5355C4.90215 49.4732 6.17392 50 7.5 50H25.65C27.0241 52.0069 28.8015 53.7053 30.8688 54.9869C32.9361 56.2685 35.2478 57.105 37.6564 57.4432C40.0651 57.7814 42.5178 57.6138 44.858 56.951C47.1982 56.2883 49.3746 55.145 51.2483 53.594C53.122 52.0431 54.6517 50.1187 55.7401 47.9434C56.8284 45.7682 57.4513 43.39 57.569 40.9606C57.6868 38.5312 57.2969 36.1039 56.4241 33.8336C55.5513 31.5633 54.2149 29.4999 52.5 27.775ZM22.5 7.5H32.5V12.5H22.5M47.5 50C45.3363 51.6228 42.7046 52.5 40 52.5C37.2954 52.5 34.6637 51.6228 32.5 50C30.4012 48.4259 28.8508 46.2313 28.0686 43.7271C27.2863 41.2229 27.3118 38.5361 28.1415 36.0472C28.9711 33.5583 30.5628 31.3935 32.6911 29.8595C34.8194 28.3255 37.3765 27.5 40 27.5C42.6235 27.5 45.1806 28.3255 47.3089 29.8595C49.4372 31.3935 51.0289 33.5583 51.8585 36.0472C52.6882 38.5361 52.7137 41.2229 51.9314 43.7271C51.1492 46.2313 49.5988 48.4259 47.5 50ZM37.5 32.5H41.25V39.55L47.35 43.075L45.475 46.325L37.5 41.725V32.5Z" fill="#FF3115"/>
</svg>
