<svg width="60" height="60" viewBox="0 0 60 60" fill="none" xmlns="http://www.w3.org/2000/svg">
<path d="M19.7725 12.5H23.1225C23.5976 12.5001 24.0549 12.6806 24.402 13.0049C24.7491 13.3293 24.9602 13.7732 24.9926 14.2472C25.0249 14.7212 24.8762 15.1897 24.5764 15.5582C24.2766 15.9268 23.8481 16.1677 23.3775 16.2325L23.125 16.25H19.7738C19.3387 16.2498 18.9171 16.401 18.5812 16.6775L18.3938 16.8562L13.2088 22.4975L21.8738 22.4988C23.2593 22.4988 24.5961 23.0102 25.6279 23.935C26.6596 24.8597 27.3138 26.1327 27.465 27.51H32.5338C32.685 26.1325 33.3393 24.8593 34.3714 23.9345C35.4034 23.0098 36.7405 22.4985 38.1263 22.4988L46.8188 22.4975L41.6113 16.8537C41.317 16.5346 40.9212 16.3274 40.4913 16.2675L40.2313 16.25H36.8662C36.3913 16.2495 35.9342 16.0689 35.5873 15.7444C35.2404 15.42 35.0296 14.976 34.9974 14.5022C34.9652 14.0283 35.114 13.5599 35.4138 13.1915C35.7136 12.8231 36.142 12.5822 36.6125 12.5175L36.8675 12.5H40.2313C41.6393 12.5 42.9962 13.0281 44.0338 13.98L44.365 14.31L53.47 24.1788C53.595 24.315 53.6975 24.465 53.775 24.6225C54.54 25.5837 54.9975 26.8 54.9975 28.1238V36.865C54.9975 39.0199 54.1415 41.0865 52.6177 42.6102C51.094 44.134 49.0274 44.99 46.8725 44.99H40.625C38.4701 44.99 36.4035 44.134 34.8798 42.6102C33.356 41.0865 32.5 39.0199 32.5 36.865L32.4975 31.26H27.495L27.4975 36.865C27.4975 39.0199 26.6415 41.0865 25.1177 42.6102C23.594 44.134 21.5274 44.99 19.3725 44.99H13.125C10.9701 44.99 8.90349 44.134 7.37976 42.6102C5.85602 41.0865 5 39.0199 5 36.865V28.125C5 26.7212 5.515 25.4375 6.365 24.4513L6.46 24.3138L6.56875 24.1825L15.63 14.32C16.5849 13.2804 17.8958 12.6379 19.3025 12.52L19.7725 12.5013V12.5Z" fill="#FF3115"/>
</svg>
