<svg width="60" height="60" viewBox="0 0 60 60" fill="none" xmlns="http://www.w3.org/2000/svg">
<path d="M41.236 8.97461C36.3991 8.97461 32.266 12.4223 29.9952 14.7992C27.7245 12.4223 23.6006 8.97461 18.766 8.97461C10.4329 8.97461 4.61523 14.7831 4.61523 23.0977C4.61523 32.2592 11.8406 38.1808 18.8306 43.9085C22.1306 46.6154 25.546 49.4123 28.1652 52.5138C28.606 53.0331 29.2522 53.3331 29.9306 53.3331H30.0645C30.7452 53.3331 31.3891 53.0308 31.8275 52.5138C34.4514 49.4123 37.8645 46.6131 41.1668 43.9085C48.1545 38.1831 55.3845 32.2615 55.3845 23.0977C55.3845 14.7831 49.5668 8.97461 41.236 8.97461Z" fill="#FF3115"/>
</svg>
